HIERARCHY
ROOT Hips
{
	OFFSET -0.001795 -0.223333 0.028219
	CHANNELS 6 Xposition Yposition Zposition Zrotation Yrotation Xrotation 
	JOINT LeftUpLeg
	{
		OFFSET 0.069520 -0.091406 -0.006815
		CHANNELS 3 Zrotation Yrotation Xrotation
		JOINT LeftLeg
		{
			OFFSET 0.034277 -0.375199 -0.004496
			CHANNELS 3 Zrotation Yrotation Xrotation
			JOINT LeftFoot
			{
				OFFSET -0.013596 -0.397961 -0.043693
				CHANNELS 3 Zrotation Yrotation Xrotation
				JOINT LeftToe
				{
					OFFSET 0.026358 -0.055791 0.119288
					CHANNELS 3 Zrotation Yrotation Xrotation
					End Site
					{
						OFFSET 0.000000 0.000000 0.000000
					}
				}
			}
		}
	}
	JOINT RightUpLeg
	{
		OFFSET -0.067670 -0.090522 -0.004320
		CHANNELS 3 Zrotation Yrotation Xrotation
		JOINT RightLeg
		{
			OFFSET -0.038290 -0.382569 -0.008850
			CHANNELS 3 Zrotation Yrotation Xrotation
			JOINT RightFoot
			{
				OFFSET 0.015774 -0.398415 -0.042312
				CHANNELS 3 Zrotation Yrotation Xrotation
				JOINT RightToe
				{
					OFFSET -0.025372 -0.048144 0.123348
					CHANNELS 3 Zrotation Yrotation Xrotation
					End Site
					{
						OFFSET 0.000000 0.000000 0.000000
					}
				}
			}
		}
	}
	JOINT Spine
	{
		OFFSET -0.002533 0.108963 -0.026696
		CHANNELS 3 Zrotation Yrotation Xrotation
		JOINT Spine1
		{
			OFFSET 0.005487 0.135180 0.001092
			CHANNELS 3 Zrotation Yrotation Xrotation
			JOINT Spine2
			{
				OFFSET 0.001457 0.052922 0.025425
				CHANNELS 3 Zrotation Yrotation Xrotation
				JOINT Neck
				{
					OFFSET -0.002778 0.213870 -0.042857
					CHANNELS 3 Zrotation Yrotation Xrotation
					JOINT Head
					{
						OFFSET 0.005152 0.064970 0.051349
						CHANNELS 3 Zrotation Yrotation Xrotation
						End Site
						{
							OFFSET 0.000000 0.000000 0.000000
						}
					}
				}
				JOINT LeftShoulder
				{
					OFFSET 0.078845 0.121749 -0.034090
					CHANNELS 3 Zrotation Yrotation Xrotation
					JOINT LeftArm
					{
						OFFSET 0.090977 0.030469 -0.008868
						CHANNELS 3 Zrotation Yrotation Xrotation
						JOINT LeftForeArm
						{
							OFFSET 0.259612 -0.012772 -0.027456
							CHANNELS 3 Zrotation Yrotation Xrotation
							JOINT LeftHand
							{
								OFFSET 0.249234 0.008986 -0.001171
								CHANNELS 3 Zrotation Yrotation Xrotation
								End Site
								{
									OFFSET 0.000000 0.000000 0.000000
								}
							}
						}
					}
				}
				JOINT RightShoulder
				{
					OFFSET -0.081759 0.118833 -0.038615
					CHANNELS 3 Zrotation Yrotation Xrotation
					JOINT RightArm
					{
						OFFSET -0.096012 0.032551 -0.009143
						CHANNELS 3 Zrotation Yrotation Xrotation
						JOINT RightForeArm
						{
							OFFSET -0.253742 -0.013329 -0.021401
							CHANNELS 3 Zrotation Yrotation Xrotation
							JOINT RightHand
							{
								OFFSET -0.255298 0.007772 -0.005559
								CHANNELS 3 Zrotation Yrotation Xrotation
								End Site
								{
									OFFSET 0.000000 0.000000 0.000000
								}
							}
						}
					}
				}
			}
		}
	}
}
MOTION
Frames: 17
Frame Time: 0.050000
-0.044056 0.952805 0.013477 -3.144783 -8.455142 12.593722 4.935445 -0.531242 -9.763743 5.163130 -0.671334 1.024224 3.238409 8.705966 11.077453 0.000000 0.000000 0.000000 -1.275917 1.196965 -11.928115 -3.430914 0.621736 4.157738 2.758701 4.594778 3.193734 0.000000 0.000000 0.000000 -1.405062 0.303970 -5.641580 2.311650 -0.935830 -3.073282 -0.932690 0.596363 -5.980619 2.839794 -2.536104 4.868581 0.000000 0.000000 0.000000 4.055070 12.266489 -3.362665 -18.162687 -33.998828 2.472808 124.734100 -48.242857 -73.130143 0.000000 0.000000 0.000000 -9.511918 -9.680006 -0.973712 17.546214 25.980709 1.391062 -105.014107 31.199770 -36.862619 0.000000 0.000000 0.000000 
-0.045975 0.951097 0.018292 -3.574418 -8.550580 12.442039 5.479319 -0.481605 -9.544888 5.117201 -0.717723 1.733489 3.445517 8.946328 10.382120 0.000000 0.000000 0.000000 -0.437363 1.144750 -11.186629 -3.639306 0.689224 4.646859 2.158264 4.428696 1.440755 0.000000 0.000000 0.000000 -0.648096 0.327688 -6.162054 2.114127 -0.853460 -3.176791 -0.940352 1.190230 -7.171283 2.899632 -2.538740 4.311454 0.000000 0.000000 0.000000 1.842695 16.092292 -4.920995 -27.105315 -39.052874 5.767264 126.011657 -40.918030 -65.233590 0.000000 0.000000 0.000000 -6.132370 -11.769759 -2.311232 25.593258 28.647945 3.272158 -112.363258 17.880541 -23.082756 0.000000 0.000000 0.000000 
-0.047240 0.948123 0.022075 -3.147174 -7.376195 12.481497 5.454544 -0.512930 -9.851281 4.792621 -0.694235 2.066717 3.011721 8.158567 9.310670 0.000000 0.000000 0.000000 -0.938619 1.015627 -10.142818 -3.144402 0.627971 4.685905 1.171319 3.825910 -1.091939 0.000000 0.000000 0.000000 -0.340736 0.389174 -7.480101 1.613153 -0.635375 -3.398175 -1.082665 0.731117 -7.633263 2.060962 -1.690035 2.312696 0.000000 0.000000 0.000000 0.310830 16.431141 -5.369363 -33.395399 -43.147594 8.897992 125.510261 -34.928671 -56.391632 0.000000 0.000000 0.000000 -4.342901 -13.675208 -3.281667 34.662202 31.974442 5.957870 -120.349890 10.156768 -14.268722 0.000000 0.000000 0.000000 
-0.048288 0.944204 0.024224 -2.988724 -6.308425 11.913409 5.587102 -0.496217 -9.144204 4.678069 -0.655169 1.762950 2.668775 7.406919 7.916936 0.000000 0.000000 0.000000 -1.029143 0.901900 -9.082397 -2.853102 0.639582 5.358425 0.322109 3.214860 -3.384654 0.000000 0.000000 0.000000 -0.373926 0.391926 -7.796431 1.248853 -0.480036 -3.313993 -0.538403 0.475171 -8.552225 1.802456 -1.451740 1.985775 0.000000 0.000000 0.000000 -0.854086 16.317241 -5.589270 -36.218761 -46.516955 11.119984 123.634700 -32.235985 -50.919990 0.000000 0.000000 0.000000 -3.246338 -13.973977 -3.639749 39.408130 33.909992 7.775621 -125.484042 6.389234 -8.995466 0.000000 0.000000 0.000000 
-0.048860 0.941684 0.024598 -2.798655 -5.596002 11.513616 5.470170 -0.511606 -9.196105 4.793431 -0.710482 2.375406 2.471610 6.915801 6.943089 0.000000 0.000000 0.000000 -0.793231 0.804456 -8.092890 -3.270976 0.711186 5.513932 -0.286154 2.716662 -5.089057 0.000000 0.000000 0.000000 -0.196558 0.373068 -7.563729 0.881776 -0.317282 -3.610400 -0.337679 -0.371082 -8.332074 0.857706 -0.511803 -0.945652 0.000000 0.000000 0.000000 -0.924064 16.538291 -5.708422 -39.118300 -49.384535 13.458725 121.579482 -29.342140 -44.639773 0.000000 0.000000 0.000000 -2.221349 -13.341821 -3.694527 42.493890 36.473906 9.411784 -128.533089 5.553483 -8.286881 0.000000 0.000000 0.000000 
-0.049012 0.938700 0.023429 -2.839714 -5.565754 11.309123 5.921216 -0.493103 -9.501160 4.140333 -0.679838 3.238169 2.632803 6.977433 5.803544 0.000000 0.000000 0.000000 -0.752229 0.802784 -8.074555 -3.106108 0.756809 6.420938 -0.728518 2.570447 -6.619781 0.000000 0.000000 0.000000 -0.948210 0.343580 -7.232092 1.055619 -0.363446 -4.832107 0.310078 0.137677 -7.133714 0.876570 -0.391928 -3.119351 0.000000 0.000000 0.000000 -3.264182 15.547577 -5.938219 -39.691357 -49.683647 13.636619 121.692990 -31.078746 -47.386376 0.000000 0.000000 0.000000 -0.921054 -12.719723 -3.882778 44.271767 35.504197 9.488296 -130.531895 9.297683 -15.821077 0.000000 0.000000 0.000000 
-0.048743 0.936900 0.021259 -2.546618 -5.158693 11.103065 6.002905 -0.484470 -9.182618 3.566551 -0.562267 2.611018 2.470189 6.582725 5.271814 0.000000 0.000000 0.000000 -1.181734 0.742893 -7.502673 -2.790611 0.654252 5.683083 -0.898990 2.235433 -6.943024 0.000000 0.000000 0.000000 -1.434198 0.334447 -7.323331 1.157121 -0.426387 -3.781450 0.121079 0.365714 -7.429339 0.683694 -0.216589 -3.621831 0.000000 0.000000 0.000000 -5.701202 14.976961 -6.299914 -41.914456 -47.586677 13.576250 121.150473 -36.277858 -54.833707 0.000000 0.000000 0.000000 1.877657 -11.813993 -4.307853 45.544471 32.817365 8.912675 -131.940842 15.745707 -29.140820 0.000000 0.000000 0.000000 
-0.048291 0.935267 0.018701 -2.577226 -4.733623 11.133390 5.838492 -0.514642 -9.526634 4.034224 -0.630570 2.724440 2.387277 6.319894 4.708918 0.000000 0.000000 0.000000 -1.438530 0.736356 -7.451028 -2.172134 0.544715 5.394450 -1.046755 1.901416 -7.196166 0.000000 0.000000 0.000000 -1.828498 0.331140 -7.528950 0.978736 -0.368176 -2.901033 0.696277 0.549718 -7.384226 1.734962 -0.696558 -6.486483 0.000000 0.000000 0.000000 -8.108119 14.930207 -6.868419 -45.036208 -44.004032 13.110448 123.276771 -42.153739 -65.358308 0.000000 0.000000 0.000000 4.238435 -11.374268 -4.735618 48.771871 28.574735 7.934398 -133.633851 23.355555 -45.477750 0.000000 0.000000 0.000000 
-0.047831 0.932925 0.015378 -2.829015 -4.937657 10.913146 6.038805 -0.493661 -9.441514 4.123142 -0.648557 2.804590 2.614372 6.556271 3.886752 0.000000 0.000000 0.000000 -1.946851 0.763401 -7.787489 -0.903295 0.402891 6.071384 -1.110607 2.187390 -7.806871 0.000000 0.000000 0.000000 -1.779226 0.309979 -6.897224 1.019002 -0.406002 -2.068515 0.578469 1.010636 -6.477436 2.182849 -0.801765 -8.604450 0.000000 0.000000 0.000000 -11.828625 15.588204 -8.103316 -45.642464 -39.438543 11.109139 128.163584 -48.852905 -80.043976 0.000000 0.000000 0.000000 7.377521 -10.987231 -5.338820 50.356340 23.861233 6.177408 -134.513465 30.486813 -59.576634 0.000000 0.000000 0.000000 
-0.047551 0.931189 0.009952 -2.733736 -4.873343 11.988396 4.821051 -0.638934 -10.994232 6.220326 -0.927541 2.819269 2.694119 6.698121 3.812529 0.000000 0.000000 0.000000 -1.819283 0.874900 -8.969028 -1.330240 0.432081 5.515809 -1.204332 1.961509 -7.909671 0.000000 0.000000 0.000000 -2.547817 0.278499 -5.767454 0.764916 -0.281473 -2.491598 1.069623 1.116559 -4.666745 3.914697 -1.555069 -12.119182 0.000000 0.000000 0.000000 -14.709990 14.026570 -8.108791 -43.316770 -34.386813 8.148575 133.485909 -50.329917 -88.256484 0.000000 0.000000 0.000000 10.862193 -10.664107 -6.043241 51.894494 20.300612 4.695384 -134.877144 36.351665 -70.169698 0.000000 0.000000 0.000000 
-0.047286 0.930157 0.000567 -3.084461 -5.453680 13.072293 5.063616 -0.687354 -12.929248 6.494788 -1.012717 3.405033 3.022683 7.315356 3.831432 0.000000 0.000000 0.000000 -1.395949 1.065356 -10.822602 -1.624499 0.477189 5.552934 -1.068084 2.388881 -7.775335 0.000000 0.000000 0.000000 -3.019435 0.251206 -3.837217 0.556731 -0.193183 -2.293906 1.370697 1.099602 -3.134562 4.624197 -1.597270 -16.080152 0.000000 0.000000 0.000000 -15.189931 13.540889 -7.940218 -41.152587 -30.918606 6.191871 136.638852 -52.450189 -94.617396 0.000000 0.000000 0.000000 13.549690 -9.210771 -6.073030 50.631294 17.566920 3.280411 -132.533953 42.511384 -77.165443 0.000000 0.000000 0.000000 
-0.047207 0.930736 -0.013052 -3.590839 -7.006950 14.468990 4.973423 -0.742234 -15.521977 7.542287 -1.257280 4.517786 3.664650 8.649708 4.810133 0.000000 0.000000 0.000000 -0.998537 1.324484 -13.082215 -0.863111 0.591574 9.103904 -1.966801 2.930295 -11.542466 0.000000 0.000000 0.000000 -3.728419 0.249106 -0.890919 0.235098 -0.043296 -3.419687 1.782095 2.203637 -0.547740 6.499487 -2.137244 -20.505873 0.000000 0.000000 0.000000 -13.361852 11.501226 -6.580622 -36.945322 -28.242266 4.279179 136.270815 -52.114901 -93.255758 0.000000 0.000000 0.000000 12.879696 -7.442633 -5.072650 46.850228 16.641319 2.373035 -128.908438 46.337481 -77.771789 0.000000 0.000000 0.000000 
-0.047402 0.932597 -0.029023 -4.159711 -7.878109 16.239428 5.672908 -0.694699 -18.635140 7.613822 -1.331418 5.294275 3.930488 9.301798 6.301487 0.000000 0.000000 0.000000 -0.038984 1.635550 -15.294143 -1.164461 0.608818 8.481945 -1.855039 3.027504 -10.953804 0.000000 0.000000 0.000000 -3.853584 0.250732 2.325104 -0.198298 0.143064 -4.559128 1.269423 3.356250 1.183483 7.789200 -2.363610 -23.397983 0.000000 0.000000 0.000000 -10.624626 9.397087 -5.173679 -31.284796 -27.353195 2.982363 134.502605 -53.212521 -92.296473 0.000000 0.000000 0.000000 10.431201 -6.623456 -4.120146 39.514032 17.319636 1.873829 -125.170060 49.454438 -76.734722 0.000000 0.000000 0.000000 
-0.048191 0.933286 -0.044384 -4.514852 -7.875638 19.555169 6.557458 -0.601543 -21.889015 7.410406 -1.090377 3.001062 3.787691 9.275688 8.176251 0.000000 0.000000 0.000000 0.520851 2.067532 -18.411300 -1.547201 0.548680 6.732021 -1.587787 3.152016 -10.074268 0.000000 0.000000 0.000000 -4.442133 0.357460 4.502442 -0.015996 0.088341 -5.519046 0.626397 3.395880 2.567350 8.767439 -2.765254 -23.936758 0.000000 0.000000 0.000000 -7.785628 7.707977 -3.973342 -23.945970 -25.964089 1.515158 131.583214 -54.475711 -89.834599 0.000000 0.000000 0.000000 4.824183 -6.204329 -2.954449 30.990775 16.913733 1.000195 -123.862489 47.704093 -72.342186 0.000000 0.000000 0.000000 
-0.049852 0.934147 -0.057542 -4.899812 -7.967912 22.584300 6.899880 -0.541605 -24.458414 8.282081 -0.935888 0.403032 3.607133 9.240060 10.459472 0.000000 0.000000 0.000000 1.615326 2.441786 -20.461352 -2.635007 0.560203 4.826855 -1.440064 3.518172 -9.845485 0.000000 0.000000 0.000000 -4.912372 0.485247 6.617726 -0.235075 0.192311 -6.833003 0.524210 2.674939 4.372324 9.154740 -2.757836 -25.918217 0.000000 0.000000 0.000000 -6.594246 8.191702 -3.952251 -17.286588 -23.868604 0.264091 132.347764 -54.987867 -90.657392 0.000000 0.000000 0.000000 -0.031769 -6.652256 -2.333748 22.738581 16.007563 0.198155 -121.171927 42.283859 -62.253331 0.000000 0.000000 0.000000 
-0.052200 0.934092 -0.067395 -5.607806 -8.107785 25.024285 7.871251 -0.309799 -26.404477 8.624344 -0.759061 -1.544514 3.586683 9.368750 12.113189 0.000000 0.000000 0.000000 2.666205 2.794020 -22.072515 -2.948577 0.605824 4.919369 -1.706015 4.131345 -11.307959 0.000000 0.000000 0.000000 -5.026837 0.563834 8.589383 -0.170954 0.194013 -8.922748 0.256032 2.376473 6.735718 8.903609 -2.674431 -26.413591 0.000000 0.000000 0.000000 -4.950453 9.057898 -4.052815 -14.956095 -22.184466 -0.263139 135.705831 -53.912666 -93.119172 0.000000 0.000000 0.000000 -5.326320 -8.620921 -2.051686 19.398762 15.492112 -0.172050 -117.807080 35.881200 -50.359294 0.000000 0.000000 0.000000 
-0.055004 0.933725 -0.074018 -6.408678 -8.006989 27.237040 8.991008 -0.051906 -27.791041 8.930368 -0.535312 -3.683164 3.515669 9.415768 13.604229 0.000000 0.000000 0.000000 3.313333 3.001143 -22.985443 -2.552929 0.615807 5.748887 -2.188368 5.083897 -13.854005 0.000000 0.000000 0.000000 -4.989704 0.605441 9.430649 -0.205014 0.215679 -9.266121 0.198734 1.779581 6.512750 9.333489 -2.912313 -26.299349 0.000000 0.000000 0.000000 -4.904741 10.270776 -4.543788 -14.049682 -22.200490 -0.386484 140.942094 -52.789276 -98.095172 0.000000 0.000000 0.000000 -7.772940 -10.306219 -2.027144 16.344270 15.557321 -0.311257 -114.106164 29.462078 -38.884141 0.000000 0.000000 0.000000 
